<svg width="16" height="16" viewBox="0 0 16 16" fill="none" xmlns="http://www.w3.org/2000/svg">
<path d="M13.2602 15.2865C13.2002 15.2865 13.1402 15.2865 13.0735 15.2798C10.9202 15.0465 8.82685 14.2998 7.02018 13.1265C5.34018 12.0598 3.88685 10.6065 2.82018 8.9265C1.64685 7.11317 0.900181 5.01317 0.673514 2.85984C0.646848 2.57317 0.680181 2.29984 0.766848 2.03317C0.853514 1.7665 1.00018 1.5265 1.18685 1.31984C1.37351 1.11317 1.60018 0.953171 1.85351 0.839837C2.11351 0.726504 2.38685 0.666504 2.66685 0.666504H4.66685C5.13351 0.666504 5.61351 0.833171 5.98685 1.15317C6.35351 1.4665 6.59351 1.9065 6.66018 2.3865C6.74018 2.97984 6.88685 3.5665 7.09351 4.11984C7.22685 4.47984 7.26018 4.8665 7.17351 5.23984C7.09351 5.61317 6.90685 5.95984 6.64018 6.2265L6.16018 6.7065C6.94685 7.93317 7.98685 8.97984 9.22018 9.7665L9.70018 9.2865C9.97351 9.01317 10.3202 8.8265 10.6935 8.75317C11.0668 8.67317 11.4535 8.69984 11.8135 8.83317C12.3668 9.03984 12.9535 9.1865 13.5402 9.2665C14.0335 9.33317 14.4735 9.57984 14.7935 9.95317C15.1068 10.3265 15.2802 10.7998 15.2668 11.2865V13.2798C15.2668 13.5598 15.2135 13.8265 15.1002 14.0865C14.9868 14.3398 14.8202 14.5732 14.6202 14.7598C14.4135 14.9465 14.1735 15.0932 13.9068 15.1798C13.6935 15.2532 13.4802 15.2865 13.2602 15.2865ZM4.68018 1.99984H4.67351H2.66685C2.57351 1.99984 2.48685 2.01984 2.40018 2.05984C2.31351 2.09317 2.23351 2.1465 2.17351 2.21317C2.10685 2.27984 2.06018 2.35984 2.03351 2.45317C2.00685 2.53984 1.99351 2.63317 2.00018 2.7265C2.20685 4.6665 2.88018 6.55984 3.94018 8.2065C4.90685 9.7265 6.22018 11.0398 7.74018 12.0065C9.38018 13.0732 11.2735 13.7398 13.2068 13.9532C13.2868 13.9598 13.3802 13.9465 13.4668 13.9198C13.5535 13.8932 13.6335 13.8398 13.7068 13.7798C13.7802 13.7198 13.8335 13.6398 13.8668 13.5532C13.9068 13.4665 13.9202 13.3732 13.9202 13.2798V11.2798C13.9202 11.2732 13.9202 11.2665 13.9202 11.2665C13.9268 11.0998 13.8668 10.9465 13.7602 10.8198C13.6535 10.6932 13.5068 10.6132 13.3468 10.5932C12.6668 10.5065 11.9868 10.3332 11.3335 10.0932C11.2135 10.0465 11.0802 10.0398 10.9602 10.0665C10.8335 10.0932 10.7202 10.1532 10.6268 10.2465L9.78685 11.0932C9.57352 11.3065 9.24685 11.3465 8.98685 11.1998C7.21351 10.1932 5.74685 8.71984 4.73351 6.95317C4.59351 6.67317 4.63351 6.3465 4.84685 6.13317L5.69351 5.2865C5.78018 5.19984 5.84018 5.0865 5.86685 4.95984C5.89351 4.83317 5.88685 4.7065 5.84018 4.5865C5.59351 3.93317 5.42685 3.25317 5.33351 2.5665C5.31351 2.41317 5.23351 2.2665 5.11351 2.15984C4.99351 2.05984 4.84018 1.99984 4.68018 1.99984Z" fill="white"/>
</svg>
