<svg width="126" height="89" viewBox="0 0 126 89" fill="none" xmlns="http://www.w3.org/2000/svg">
<path d="M122.768 13.9144C122.048 11.2249 120.643 8.77299 118.694 6.80283C116.744 4.83266 114.318 3.41301 111.657 2.68524C101.915 0 62.7056 0 62.7056 0C62.7056 0 23.4961 0.0813708 13.7541 2.76661C11.093 3.49438 8.66694 4.91404 6.71757 6.8842C4.76819 8.85436 3.36352 11.3063 2.64342 13.9958C-0.303324 31.4905 -1.4466 58.1476 2.72394 74.9426C3.44403 77.6321 4.8487 80.084 6.79808 82.0541C8.74745 84.0243 11.1735 85.444 13.8346 86.1717C23.5766 88.857 62.7861 88.857 62.7861 88.857C62.7861 88.857 101.996 88.857 111.738 86.1717C114.399 85.444 116.825 84.0243 118.774 82.0541C120.723 80.084 122.128 77.6321 122.848 74.9426C125.956 57.4234 126.914 30.7826 122.768 13.9144Z" fill="#DE131E"/>
<path d="M54 59L79 44.5L54 30V59Z" fill="white"/>
</svg>
